<?xml version="1.0" standalone="no"?>
<!DOCTYPE svg PUBLIC "-//W3C//DTD SVG 20010904//EN"
 "http://www.w3.org/TR/2001/REC-SVG-20010904/DTD/svg10.dtd">
<svg version="1.0" xmlns="http://www.w3.org/2000/svg"
x="0px" y="0px"
viewBox="0 0 47.834 47.834" style="enable-background:new 0 0 47.834 47.834;" xml:space="preserve">

<g transform="translate(0.000000,321.000000) scale(0.100000,-0.100000)"
fill="#000000" stroke="none">
<path d="M2711 3131 c95 -97 90 -39 87 -992 -3 -944 6 -855 -101 -957 l-56
-52 517 0 c427 0 528 3 582 15 190 45 364 148 463 273 86 111 119 205 118 345
0 264 -154 454 -455 561 -16 5 -8 12 41 36 116 54 184 154 205 299 22 148 -20
271 -126 376 -34 33 -89 75 -123 93 -111 59 -143 62 -703 62 l-506 0 57 -59z
m839 -170 c172 -59 250 -180 221 -340 -15 -79 -38 -125 -88 -173 -76 -73 -112
-83 -340 -86 l-203 -3 0 316 0 317 173 -4 c144 -4 183 -8 237 -27z m75 -816
c133 -35 258 -136 313 -252 24 -51 27 -70 27 -158 0 -85 -4 -107 -23 -148 -50
-100 -161 -187 -291 -227 -55 -17 -93 -20 -287 -20 l-224 0 0 410 0 410 213 0
c159 0 228 -4 272 -15z"/>
<path d="M4613 3146 c25 -24 56 -63 69 -87 l23 -44 3 -872 c3 -996 11 -907
-89 -997 l-51 -46 270 0 271 0 -50 47 c-28 26 -62 66 -75 89 l-24 41 2 689 3
688 366 -479 c201 -264 428 -563 504 -665 194 -260 335 -393 508 -481 l57 -29
0 1002 c0 986 0 1002 20 1044 11 23 42 62 67 88 l47 46 -274 0 c-259 0 -273
-1 -250 -17 45 -29 82 -67 111 -112 l29 -45 0 -674 0 -674 -526 709 c-289 389
-546 734 -570 766 l-44 57 -221 0 -221 0 45 -44z"/>
<path d="M6915 3158 c48 -35 100 -92 118 -130 16 -33 17 -109 17 -888 0 -964
7 -882 -85 -969 l-54 -51 309 0 309 0 -47 47 c-94 95 -87 12 -87 983 l0 855
25 49 c14 27 45 66 69 87 l44 39 -324 0 -324 -1 30 -21z"/>
<path d="M660 235 c0 -122 2 -145 15 -145 13 0 15 23 15 145 0 122 -2 145 -15
145 -13 0 -15 -23 -15 -145z"/>
<path d="M4080 236 l0 -143 43 -2 c23 -1 53 -2 66 -3 65 -1 104 112 61 180
-19 31 -24 34 -63 30 -23 -3 -50 -8 -59 -12 -16 -7 -18 -2 -18 43 0 39 -4 51
-15 51 -13 0 -15 -23 -15 -144z m140 18 c8 -8 13 -36 13 -61 0 -36 -5 -50 -22
-65 -26 -20 -53 -23 -82 -8 -27 15 -28 124 -1 139 26 16 78 13 92 -5z"/>
<path d="M80 230 c0 -116 2 -140 15 -140 12 0 15 23 17 123 l3 122 39 -82 c21
-46 45 -83 53 -83 7 0 31 37 52 83 l39 82 1 -122 c1 -116 2 -123 21 -123 19 0
20 7 20 140 l0 140 -28 0 c-26 0 -32 -7 -61 -75 -18 -41 -36 -75 -40 -75 -4 0
-23 34 -44 75 -31 64 -41 75 -62 75 l-25 0 0 -140z"/>
<path d="M1730 355 c0 -8 7 -15 15 -15 8 0 15 7 15 15 0 8 -7 15 -15 15 -8 0
-15 -7 -15 -15z"/>
<path d="M1980 231 c0 -119 2 -141 15 -141 13 0 15 21 15 128 1 147 -3 148 86
-17 48 -90 63 -111 82 -111 22 0 22 1 22 140 0 116 -2 140 -15 140 -12 0 -15
-22 -17 -117 l-3 -116 -61 114 c-57 104 -65 114 -93 117 l-31 3 0 -140z"/>
<path d="M3180 355 c0 -8 7 -15 15 -15 8 0 15 7 15 15 0 8 -7 15 -15 15 -8 0
-15 -7 -15 -15z"/>
<path d="M3580 230 c0 -118 2 -140 15 -140 11 0 15 11 15 41 0 41 14 79 29 79
5 0 36 -27 68 -61 37 -39 66 -60 77 -58 13 3 2 20 -48 75 l-65 71 60 59 c32
32 59 62 59 66 0 25 -40 -1 -97 -62 -36 -38 -69 -70 -74 -70 -5 0 -9 32 -9 70
0 56 -3 70 -15 70 -13 0 -15 -22 -15 -140z"/>
<path d="M6200 230 l0 -140 69 0 c83 0 114 10 137 45 20 31 10 82 -21 99 -11
6 -22 12 -24 13 -2 2 4 12 13 22 25 27 17 72 -14 88 -14 7 -55 13 -92 13 l-68
0 0 -140z m150 90 c16 -30 -3 -56 -47 -64 -62 -10 -63 -9 -63 39 l0 45 50 0
c39 0 52 -4 60 -20z m8 -106 c12 -8 22 -26 22 -39 0 -39 -25 -55 -86 -55 l-54
0 0 55 0 55 48 0 c27 0 57 -7 70 -16z"/>
<path d="M435 276 c-46 -46 -45 -129 2 -166 40 -31 153 -27 153 6 0 17 -1 17
-37 3 -43 -16 -90 -3 -108 31 -8 16 -15 31 -15 35 0 3 36 5 80 5 l80 0 0 35
c0 50 -28 75 -85 75 -35 0 -52 -6 -70 -24z m109 -12 c9 -8 16 -24 16 -35 0
-17 -7 -19 -60 -19 -53 0 -60 2 -60 19 0 42 73 66 104 35z"/>
<path d="M770 281 c0 -17 4 -19 33 -10 39 11 83 3 91 -18 9 -24 0 -30 -54 -35
-29 -3 -59 -13 -71 -24 -28 -25 -22 -71 13 -97 25 -19 29 -19 72 -5 25 8 46
11 46 7 0 -5 7 -9 15 -9 12 0 15 16 15 85 0 109 -12 125 -100 125 -53 0 -60
-2 -60 -19z m128 -113 c-2 -25 -10 -36 -31 -46 -49 -24 -96 2 -80 44 7 20 38
33 81 33 32 1 33 -1 30 -31z"/>
<path d="M1016 218 c20 -46 39 -92 44 -103 5 -13 1 -33 -12 -58 -11 -22 -17
-41 -14 -44 15 -16 37 18 93 146 51 117 58 141 44 141 -12 0 -27 -24 -50 -80
-19 -44 -35 -80 -36 -80 -1 0 -17 36 -36 80 -23 58 -38 80 -50 80 -16 0 -14
-10 17 -82z"/>
<path d="M1240 281 c0 -17 4 -18 40 -9 33 9 45 7 66 -6 36 -25 25 -40 -33 -46
-89 -9 -124 -74 -66 -120 28 -22 72 -20 102 4 11 8 15 8 18 -1 3 -7 11 -13 19
-13 11 0 14 18 14 85 0 109 -12 125 -100 125 -52 0 -60 -2 -60 -19z m128 -113
c-2 -25 -10 -36 -31 -46 -49 -24 -96 2 -80 44 7 20 38 33 81 33 32 1 33 -1 30
-31z"/>
<path d="M1480 195 c0 -87 3 -105 15 -105 12 0 15 16 15 80 0 88 8 100 68 100
37 0 42 -12 42 -106 0 -59 3 -74 15 -74 12 0 15 16 15 88 0 73 -3 92 -18 105
-22 20 -82 22 -101 5 -11 -10 -14 -10 -18 0 -3 6 -11 12 -19 12 -11 0 -14 -21
-14 -105z"/>
<path d="M1730 195 c0 -87 3 -105 15 -105 12 0 15 18 15 105 0 87 -3 105 -15
105 -12 0 -15 -18 -15 -105z"/>
<path d="M2297 274 c-29 -28 -36 -61 -25 -114 10 -49 40 -70 98 -70 59 0 80 7
80 27 0 11 -5 13 -17 8 -10 -5 -32 -10 -48 -12 -36 -5 -85 28 -85 58 0 17 8
19 81 19 l82 0 -6 38 c-8 48 -38 72 -92 72 -32 0 -48 -6 -68 -26z m105 -6 c9
-7 18 -22 20 -33 3 -18 -3 -20 -59 -23 -52 -2 -63 0 -63 13 0 41 67 70 102 43z"/>
<path d="M2536 277 c-33 -34 -41 -89 -19 -135 23 -47 62 -61 109 -38 34 16 34
15 34 -8 0 -41 -27 -58 -82 -54 -39 2 -48 0 -46 -12 2 -11 19 -16 56 -18 44
-3 55 1 77 22 24 24 25 30 25 144 l0 118 -65 2 c-57 2 -69 -1 -89 -21z m98 -7
c24 -9 26 -14 26 -68 0 -53 -2 -60 -25 -70 -58 -27 -95 -2 -95 64 0 34 5 47
26 63 31 24 34 24 68 11z"/>
<path d="M2793 285 c-33 -23 -48 -79 -34 -126 15 -49 44 -69 102 -69 57 0 79
7 79 26 0 17 1 17 -39 3 -53 -19 -111 8 -111 52 0 17 8 19 80 19 61 0 80 3 80
14 0 28 -23 77 -40 86 -28 15 -93 12 -117 -5z m101 -21 c9 -8 16 -24 16 -35 0
-17 -7 -19 -60 -19 -53 0 -60 2 -60 19 0 42 73 66 104 35z"/>
<path d="M3010 195 c0 -87 3 -105 15 -105 12 0 15 15 15 74 0 84 10 99 66 100
25 1 34 5 34 19 0 21 -31 22 -70 2 -27 -14 -30 -14 -30 0 0 8 -7 15 -15 15
-12 0 -15 -18 -15 -105z"/>
<path d="M3180 195 c0 -87 3 -105 15 -105 12 0 15 18 15 105 0 87 -3 105 -15
105 -12 0 -15 -18 -15 -105z"/>
<path d="M3859 271 c-22 -23 -29 -39 -29 -70 0 -79 33 -111 115 -111 54 0 75
8 75 27 0 10 -5 13 -17 8 -10 -4 -35 -9 -55 -12 -30 -4 -41 -1 -62 20 -46 46
-36 57 54 57 l80 0 0 29 c0 15 -9 40 -21 55 -17 21 -29 26 -65 26 -37 0 -51
-6 -75 -29z m112 -12 c30 -30 19 -44 -41 -47 -69 -4 -85 11 -47 44 34 29 60
31 88 3z"/>
<path d="M4337 293 c-19 -18 -3 -25 41 -19 33 4 54 2 67 -7 29 -22 12 -47 -30
-47 -20 0 -50 -7 -66 -16 -27 -14 -30 -19 -27 -57 2 -35 8 -44 32 -56 24 -11
34 -11 67 2 22 9 39 11 39 6 0 -5 9 -9 20 -9 18 0 20 7 20 76 0 72 -10 111
-34 126 -14 10 -120 10 -129 1z m123 -127 c0 -28 -5 -36 -30 -46 -24 -10 -37
-10 -56 -1 -51 23 -10 80 59 81 24 0 27 -4 27 -34z"/>
<path d="M4570 195 c0 -87 3 -105 15 -105 12 0 15 15 15 76 0 86 11 103 67
104 43 0 53 -21 53 -109 0 -56 3 -71 15 -71 22 0 21 156 -1 188 -17 25 -70 30
-107 11 -16 -9 -22 -9 -25 0 -2 6 -10 11 -18 11 -11 0 -14 -21 -14 -105z"/>
<path d="M4844 277 c-20 -18 -28 -35 -32 -75 -4 -47 -2 -54 27 -83 32 -32 45
-34 110 -13 21 6 23 5 16 -17 -14 -45 -26 -51 -83 -47 -44 4 -52 2 -50 -11 2
-12 17 -17 54 -19 43 -2 57 1 80 22 28 24 29 26 32 143 l4 119 -66 2 c-55 2
-69 -2 -92 -21z m119 -17 c5 -4 7 -31 5 -61 -3 -46 -7 -55 -30 -68 -38 -21
-79 -6 -90 34 -11 41 4 88 32 102 24 12 66 8 83 -7z"/>
<path d="M5089 271 c-24 -24 -29 -38 -29 -76 0 -38 5 -52 30 -77 31 -31 46
-32 106 -13 19 6 21 3 17 -19 -8 -39 -27 -49 -84 -44 -42 4 -49 3 -47 -11 2
-12 17 -17 54 -19 43 -2 57 1 80 22 28 24 29 27 32 143 l4 119 -67 2 c-61 2
-69 0 -96 -27z m124 -11 c5 -4 7 -31 5 -61 -3 -45 -7 -56 -29 -68 -35 -20 -77
-8 -90 27 -15 39 0 94 31 109 24 12 66 8 83 -7z"/>
<path d="M5330 281 c0 -17 4 -19 32 -10 46 13 53 12 79 -11 21 -17 22 -21 9
-30 -8 -5 -31 -10 -51 -10 -79 0 -118 -76 -62 -120 28 -22 72 -20 102 4 11 8
15 8 18 -1 3 -7 11 -13 19 -13 11 0 14 18 14 85 0 109 -12 125 -100 125 -53 0
-60 -2 -60 -19z m130 -111 c0 -54 -99 -81 -115 -30 -11 36 20 58 83 59 29 1
32 -2 32 -29z"/>
<path d="M5570 281 c0 -17 4 -18 40 -9 33 9 45 7 66 -6 36 -25 25 -40 -33 -46
-89 -9 -124 -74 -66 -120 28 -22 72 -20 102 4 11 8 15 8 18 -1 3 -7 11 -13 19
-13 11 0 14 18 14 85 0 109 -12 125 -100 125 -52 0 -60 -2 -60 -19z m128 -113
c-2 -25 -10 -36 -31 -46 -49 -24 -96 2 -80 44 7 20 38 33 81 33 32 1 33 -1 30
-31z"/>
<path d="M5810 195 c0 -87 3 -105 15 -105 12 0 15 16 15 80 0 88 8 100 68 100
37 0 42 -12 42 -106 0 -59 3 -74 15 -74 12 0 15 16 15 88 0 73 -3 92 -18 105
-22 20 -82 22 -101 5 -11 -10 -14 -10 -18 0 -3 6 -11 12 -19 12 -11 0 -14 -21
-14 -105z"/>
<path d="M6480 281 c0 -17 4 -18 40 -9 33 9 45 7 66 -6 36 -25 25 -40 -33 -46
-89 -9 -124 -74 -66 -120 28 -22 72 -20 102 4 11 8 15 8 18 -1 3 -7 11 -13 19
-13 11 0 14 18 14 85 0 109 -12 125 -100 125 -52 0 -60 -2 -60 -19z m128 -113
c-2 -25 -10 -36 -31 -46 -49 -24 -96 2 -80 44 7 20 38 33 81 33 32 1 33 -1 30
-31z"/>
<path d="M6720 195 c0 -87 3 -105 15 -105 12 0 15 16 15 80 0 88 8 100 68 100
37 0 42 -12 42 -106 0 -59 3 -74 15 -74 12 0 15 16 15 88 0 73 -3 92 -18 105
-22 20 -82 22 -101 5 -11 -10 -14 -10 -18 0 -3 6 -11 12 -19 12 -11 0 -14 -21
-14 -105z"/>
<path d="M6985 276 c-34 -34 -41 -86 -19 -133 24 -48 63 -62 110 -39 34 16 34
15 34 -8 0 -41 -27 -58 -82 -54 -39 2 -48 0 -46 -12 3 -11 18 -15 61 -15 86 1
91 10 95 159 l4 122 -67 2 c-57 2 -69 -1 -90 -22z m99 -6 c24 -9 26 -14 26
-68 0 -53 -2 -60 -25 -70 -58 -27 -95 -2 -95 64 0 34 5 47 26 63 31 24 34 24
68 11z"/>
<path d="M7221 274 c-33 -42 -12 -77 59 -94 53 -13 68 -31 44 -55 -19 -19 -61
-19 -96 -1 -26 14 -28 13 -28 -4 0 -23 19 -30 81 -30 36 0 54 5 69 20 40 40
23 76 -47 96 -60 17 -77 39 -47 61 18 14 48 13 87 -2 11 -5 17 -2 17 8 0 19
-21 27 -75 27 -35 0 -48 -5 -64 -26z"/>
<path d="M7437 293 c-4 -3 -7 -12 -7 -19 0 -9 8 -10 33 -3 39 11 83 3 91 -18
9 -23 -2 -33 -39 -33 -76 0 -120 -44 -97 -95 17 -37 54 -48 102 -31 22 8 40
10 40 5 0 -5 7 -9 15 -9 12 0 15 17 15 89 0 82 -2 91 -22 105 -22 16 -118 22
-131 9z m121 -125 c-2 -25 -10 -36 -31 -46 -35 -17 -73 -9 -80 17 -9 36 21 59
81 60 32 1 33 -1 30 -31z"/>
<path d="M3299 80 c-13 -49 -13 -60 -2 -60 7 0 13 2 13 4 0 2 11 29 25 60 l25
56 -23 0 c-19 0 -25 -9 -38 -60z"/>
</g>
</svg>
